# xmcd
#
# Track frame offsets:
#	150
#	17415
#	30169
#	42540
#	54498
#	63735
#	70832
#	75712
#	81557
#	89858
#	94443
#	100280
#	106705
#	110785
#	127647
#	132222
#	136225
#	141078
#	144770
#	149435
#	158809
#	171762
#	188374
#	204876
#	218400
#	231768
#	243457
#	257968
#	273524
#	288559
#	301097
#	315124
#	324816
#	336582
#
# Disc length: 4735 seconds
#
# Revision: 0
# Processed by: cddbd v1.4PL0 Copyright (c) Steve Scherf et al.
# Submitted via: EasyCDDAExtractor 4.5.0.2
#
DISCID=e0127d22
DTITLE=konitopouleikoKONITOPOULEIKO GLENTI
DYEAR=1900
DGENRE=
TTITLE0=ыяаиа поу 'маи г ауцг  -  аццекийг
TTITLE1=пеяибокаягс  -  баццекгс
TTITLE2=аялемайи  -  стекка
TTITLE3=ацапиыласте акка  -  циыяцос
TTITLE4=тгс тяиамтажуккиас та жукка  -  стекка
TTITLE5=алояциамо лоу пеяала  -  стекка
TTITLE6=та латайиа соу та лауяа  -  аццекийг
TTITLE7=ека ма пале с' ема леяос  -  стекка
TTITLE8=то коукоудайи тоу лпане  -  аццекийг
TTITLE9=мгсайи лоу дем се невмы  -  баццекгс
TTITLE10=тг хакасса тг цакамг  -  баццекгс
TTITLE11=ека маласте та дуо лас  -  баццекгс
TTITLE12=покитийо суято  -  аццекийг
TTITLE13=лпакос  -  аццекийг
TTITLE14=тсияициытийо  -  аццекийг
TTITLE15=паяиамг тсалпоума  -  аццекийг
TTITLE16=м' акканы хекы то сйопо  -  баццекгс
TTITLE17=апо та цкуйа соу латиа  -  баццекгс
TTITLE18=поиос лыяо лоу поиос  -  баццекгс
TTITLE19=вояеьете вояеьете - паяиос 2
TTITLE20=сам гжаистеио  -  баццекгс
TTITLE21=ажоу се диакена  -  баццекгс
TTITLE22=кеиымы  -  баццекгс
TTITLE23=еилаи циа ока етоилос  -  баццекгс
TTITLE24=жеуцеис паки латиа лоу  -  баццекгс
TTITLE25=хакассайи лоу  -  баццекгс
TTITLE26=ма 'лоума  -  баццекгс
TTITLE27=еийоси циати  -  баццекгс
TTITLE28=гтаме пяытг тоу лгмос  -  баццекгс
TTITLE29=ацапа ле йаи лгм еяеума  -  баццекгс
TTITLE30=памы се бяавомгсида  -  баццекгс
TTITLE31=коцо сто хео ха дысеис  -  баццекгс
TTITLE32=пеияатеиа  -  баццекгс
TTITLE33=то жомийо сто яела  -  баццекгс
EXTD=
EXTT0=
EXTT1=
EXTT2=
EXTT3=
EXTT4=
EXTT5=
EXTT6=
EXTT7=
EXTT8=
EXTT9=
EXTT10=
EXTT11=
EXTT12=
EXTT13=
EXTT14=
EXTT15=
EXTT16=
EXTT17=
EXTT18=
EXTT19=
EXTT20=
EXTT21=
EXTT22=
EXTT23=
EXTT24=
EXTT25=
EXTT26=
EXTT27=
EXTT28=
EXTT29=
EXTT30=
EXTT31=
EXTT32=
EXTT33=
PLAYORDER=
